<?xml version="1.0" standalone="no"?><!DOCTYPE svg PUBLIC "-//W3C//DTD SVG 1.1//EN" "http://www.w3.org/Graphics/SVG/1.1/DTD/svg11.dtd"><svg t="1526107546758" class="icon" style="" viewBox="0 0 1024 1024" version="1.1" xmlns="http://www.w3.org/2000/svg" p-id="25800" xmlns:xlink="http://www.w3.org/1999/xlink" width="128" height="128"><defs><style type="text/css"></style></defs><path d="M669.38947339 665.1003507q-7.0736843-6.33263203-22.31017523-6.32140326h-26.19508796v79.71929831h26.19508796q17.29122806 0 23.98315795-7.62385936 4.07578992-4.83929873 6.60210567-13.5635092a67.08771956 67.08771956 0 0 0 2.5038592-18.59368416 64.60631592 64.60631592 0 0 0-2.96421004-20.07578967q-2.99789438-9.09473709-7.81473755-13.54105266zM540.04210522 660.07017575c-2.09964923-0.8645618-5.45684245-1.29122831-10.03789435-1.29122831h-36.45754382v36.4238595h35.87368345c6.43368403 0 10.9698248-0.98807034 13.5635092-2.96421005q5.76000042-4.64842153 5.77122821-16.17964917 0-12.48561366-8.71298269-15.98877197z" fill="#333333" p-id="25801"></path><path d="M941.87228047 586.61614081c-12.13754358-12.14877234-28.1936842-17.71789458-44.11508752-17.71789556h-37.40070206V339.41894778c0-1.62807061 0.1908772-3.26736802 0.32561452-4.90666739 0.46035084-6.00701752 2.00982502-14.22596503-1.51578985-23.78105198-2.76210506-7.50035081-6.31017548-15.99999975-12.93473672-23.75859643L627.94666672 30.36631611c-7.65754369-8.98245633-16.59508791-12.96842105-24.38736891-16.48280714l-3.02035092-1.3473682a53.78245622 53.78245622 0 0 0-23.18596481-4.49122866c-1.88631548 0-3.78385973 0.5277195-5.681403 0.58385939-1.54947417 0-3.11017514 0.57263161-4.6708771 0.57263161H151.48350898c-26.34105305 0-46.97824556 6.44491181-60.63157898 20.09824622C78.38877191 41.7740352 63.71368381 58.71719319 63.71368381 82.87999958v845.73193064c0 20.34526331 10.86877181 44.14877184 27.14947397 60.44070178s40.28631567 26.947368 60.63157899 26.947368h634.38596451c24.15157861 0 41.54385966-14.47298212 54.01824652-26.947368 13.64210564-13.65333342 20.51368397-34.08842095 20.51368397-60.429474V841.79649106h37.40070107a62.641404 62.641404 0 0 0 62.47298335-62.43929803V630.10245584a61.01333339 61.01333339 0 0 0-18.41403572-43.48631503zM586.2905263 47.30947409l1.54947417 0.58385939c6.24280683 2.81824594 10.105263 4.6147372 12.23859558 7.10736863l213.53543859 252.64280672H633.02175477c-10.91368392 0-23.7698242-6.00701752-32.38175489-14.59649166s-14.34947358-21.63649163-14.34947358-32.65122755z m236.91228061 881.30245613c0 11.05964902-1.69543828 26.15017584-9.66736871 34.12210528-11.11578989 11.11578989-19.42456162 16.08982495-27.69964903 16.08982397h-634.38596451c-10.27368464 0-24.70175466-7.05122775-33.68421099-16.07859619s-15.71929833-23.85964941-15.71929833-34.13333306V82.83508747c0-8.27508741 4.59228066-16.15719263 15.71929833-27.27298252 7.9831582-7.97192944 22.69192964-9.24070219 33.74035088-9.2407012h397.619649v214.018245c0 21.03017569 9.54385917 43.30666659 25.20701761 58.94736848s37.75999992 25.47649125 58.68912361 25.47649125h190.16982436v224.13473677H387.8119302c-15.92140331 0-32.14596459 5.61403533-44.28350915 17.71789556s-18.5263155 27.57614048-18.5263155 43.48631503v149.25473719a62.87719331 62.87719331 0 0 0 62.80982465 62.43929803h435.37964892zM709.17052611 698.91929802a101.61403481 101.61403481 0 0 1-4.83929775 31.60701731q-4.82806997 15.23649094-15.97754419 22.45614033a43.78947398 43.78947398 0 0 1-15.52842112 6.02947406q-8.45473683 1.58315752-25.74596489 1.58315751h-52.60350868V636.62596508h52.60350868q19.71649083 0 30.48421064 3.90736828 19.90736803 7.24210495 26.58807014 26.58807014a98.70596466 98.70596466 0 0 1 5.01894717 31.79789452z m-131.42456086-21.87228094a46.94456123 46.94456123 0 0 1-3.43578966 17.96491265 36.39017517 36.39017517 0 0 1-9.56631571 13.76561419 32.00000048 32.00000048 0 0 1-11.81193005 6.736842q-6.23157905 1.85263116-16.99929788 1.86385992h-42.3859649v43.29543882H467.13824534V636.62596508h61.91157952q16.90947366 0 24.16280639 2.42526276 12.26105311 4.07578992 19.33473741 16.90947366a43.59859678 43.59859678 0 0 1 5.19859659 21.08631558z m248.53333345-18.21192975h-39.60140428q-18.40280695 0.37052662-23.578947 2.97543881-10.40842097 4.27789491-10.77894759 18.952983v6.736842h73.99298222v22.11929803h-74.06035088v51.12140316h-26.1726314v-64.78596436q0.17964942-27.89052623 5.19859659-36.62596547a36.6147367 36.6147367 0 0 1 18.31298273-17.4708765q11.99157848-5.19859659 33.68421-5.20982536h42.95859652z" fill="#333333" p-id="25802"></path><path d="M446.10807064 321.90315819a31.97754394 31.97754394 0 0 0 8.14035009-0.89824613 13.85543841 13.85543841 0 0 0 8.09543897-5.50175456c3.45824522-5.2435087 4.15438636-12.41824598 3.22245591-19.79508727a13.68701775 13.68701775 0 0 0-3.94105261-6.736842c-5.29964958-5.22105216-17.07789431-7.9831582-34.97543831-8.23017529a288.2582453 288.2582453 0 0 0-42.03789483 3.08771859c-6.86035055-3.96350916-13.95649139-8.27508741-19.50315806-13.473684-14.95578952-13.95649139-27.43017539-33.32491214-35.19999985-54.64701703 0.51649172-1.98736847 0.93192947-3.75017541 1.34736821-5.52421111 0 0 8.40982472-47.83157859 6.18666693-63.99999998a19.08771933 19.08771933 0 0 0-1.12280667-4.59228066l-0.74105325-1.88631548c-2.24561433-5.27719303-6.736842-10.87999959-13.81052629-10.56561385l-4.04210461-0.13473731h-0.12350954c-7.85964867 0-14.23719281 4.01964905-15.92140331 10.02666656-5.12000016 18.81824569 0.15719288 46.98947334 9.70105303 83.45824594l-2.43649153 5.95087762c-6.84912277 16.67368434-15.40491258 33.44842069-22.97263204 48.28070166l-0.97684158 1.91999981c-7.94947388 15.56210545-15.18035105 28.77754359-21.7038593 39.97192993l-6.73684298 3.5592982c-0.48280739 0.26947364-12.04771936 6.3999997-14.76491232 8.02807031-23.02877194 13.75438641-38.2989472 29.36140397-40.81403418 41.75719242-0.8196487 3.95228039-0.22456153 8.98245633 3.88491173 11.35157921l6.53473702 3.28982456a19.70526305 19.70526305 0 0 0 8.87017556 2.14456134c16.41543848 0 35.44701792-20.43508753 61.67578922-66.24561431a611.51438644 611.51438644 0 0 1 95.01193012-22.56842109c22.9501755 12.96842105 51.27859603 21.97333294 69.15368447 21.97333392z m-19.41333384-26.38596516c9.62245659 0 12.48561366 0 21.8947365 2.35789509s9.55508794 7.2645615 7.93824609 8.28631519-6.24280683 1.59438628-9.21824564 1.59438628c-9.61122783 0-21.49052653-4.39017567-38.17543866-11.53122862 6.43368403-0.47157862 12.30596522-0.70736794 17.56070171-0.70736794zM216.60631564 376.28070158c2.98666659-8.18526319 14.8210522-24.36491236 32.3368418-38.69192939 1.12280667-0.89824514 3.80631628-3.43578966 6.2989477-5.80491253-18.35789484 29.20421011-30.57403486 40.83649172-38.6357895 44.49684192z m103.70245627-238.7985961c5.26596525 0 8.26385963 13.2828068 8.5108777 25.73473711s-2.66105306 21.20982413-6.27649214 27.68842027c-3.00912314-9.58877227-4.49122767-24.70175466-4.49122767-34.55999958 0.04491211 0-0.16842066-18.8631578 2.25684211-18.8631578z m-30.93333371 170.16140335c3.66035119-6.57964913 7.50035081-13.473684 11.39649132-20.85052627a399.84280678 399.84280678 0 0 0 20.01964978-43.66596543 144.11228048 144.11228048 0 0 0 33.03298195 41.00491237c1.6842105 1.42596464 3.368421 2.79578939 5.15368448 4.14315858-26.52070148 5.2435087-49.42596487 11.62105284-69.60280753 19.36842075z" fill="#333333" p-id="25803"></path></svg>